<?xml version="1.0" encoding="UTF-8" standalone="no"?><!DOCTYPE svg PUBLIC "-//W3C//DTD SVG 1.1//EN" "http://www.w3.org/Graphics/SVG/1.1/DTD/svg11.dtd"><svg width="100%" height="100%" viewBox="0 0 300 300" version="1.1" xmlns="http://www.w3.org/2000/svg" xmlns:xlink="http://www.w3.org/1999/xlink" xml:space="preserve" xmlns:serif="http://www.serif.com/" style="fill-rule:evenodd;clip-rule:evenodd;stroke-linejoin:round;stroke-miterlimit:2;"><path d="M79.028,6.104c-2.712,27.768 0.421,50.482 7.312,70.51c3.511,10.206 8.104,19.496 13.313,28.344c3.975,6.751 8.373,13.113 13.081,19.256c6.954,9.073 14.503,17.616 22.351,25.91c4.246,4.488 8.616,8.862 13.014,13.214c4.316,4.27 8.678,8.485 13.003,12.768c12.498,12.377 24.439,25.26 34.335,40.856c12.865,20.279 22.598,44.316 25.535,76.934c2.172,-23.194 0.469,-42.87 -4.047,-60.481c-3.637,-14.186 -9.106,-26.762 -15.744,-38.421c-9.685,-17.011 -21.627,-31.958 -34.624,-45.923c-8.395,-9.02 -17.346,-17.469 -25.984,-26.214c-5.052,-5.116 -10.116,-10.185 -14.976,-15.513c-7.103,-7.786 -13.825,-15.889 -19.876,-24.926c-13.42,-20.041 -23.595,-43.745 -26.693,-76.314Z" style="fill:#00cc0a;"/><path d="M155.859,141.979l-5.859,-135.875l-5.859,135.875c-0,3.234 2.625,5.86 5.859,5.86c3.234,-0 5.859,-2.626 5.859,-5.86Z" style="fill:#00cc0a;"/><path d="M149.222,27.131c8.705,4.977 16.306,10.795 23.178,17.207c7.262,6.777 13.686,14.154 19.501,22.097c-5.06,-8.511 -10.742,-16.595 -17.505,-24.052c-6.595,-7.272 -14.182,-13.851 -22.926,-19.753c-1.375,-0.856 -2.994,-0.542 -3.615,0.7c-0.62,1.242 -0.007,2.945 1.367,3.801Z" style="fill:#00cc0a;"/><path d="M148.558,22.601c-8.607,5.766 -16.062,12.214 -22.528,19.357c-6.631,7.325 -12.186,15.281 -17.119,23.665c5.687,-7.815 11.983,-15.063 19.114,-21.71c6.748,-6.289 14.225,-11.981 22.802,-16.832c1.354,-0.835 1.945,-2.516 1.319,-3.752c-0.626,-1.237 -2.234,-1.563 -3.588,-0.728Z" style="fill:#00cc0a;"/><path d="M148.688,69.016c6.852,2.851 12.504,6.376 17.275,10.446c5.471,4.667 9.761,9.944 13.08,15.923c-2.395,-6.625 -5.824,-12.762 -10.724,-18.318c-4.449,-5.045 -10.092,-9.458 -17.007,-13.399c-1.476,-0.724 -3.262,-0.114 -3.986,1.362c-0.724,1.476 -0.114,3.262 1.362,3.986Z" style="fill:#00cc0a;"/><path d="M148.688,63.668c-6.915,3.941 -12.558,8.354 -17.007,13.399c-4.9,5.556 -8.329,11.693 -10.724,18.318c3.319,-5.979 7.609,-11.256 13.08,-15.923c4.771,-4.07 10.423,-7.595 17.275,-10.446c1.476,-0.724 2.086,-2.51 1.362,-3.986c-0.724,-1.476 -2.51,-2.086 -3.986,-1.362Z" style="fill:#00cc0a;"/><circle cx="95.033" cy="278.378" r="6.111" style="fill:#dd0058;"/><circle cx="107.995" cy="251.638" r="6.111" style="fill:#dd0058;"/><circle cx="121.407" cy="223.724" r="6.111" style="fill:#dd0058;"/><circle cx="178.593" cy="223.724" r="6.111" style="fill:#dd0058;"/><circle cx="160.208" cy="198.389" r="6.111" style="fill:#dd0058;"/><circle cx="139.792" cy="198.389" r="6.111" style="fill:#dd0058;"/><circle cx="204.967" cy="278.378" r="6.111" style="fill:#dd0058;"/><circle cx="192.005" cy="251.638" r="6.111" style="fill:#dd0058;"/><rect x="95.033" y="276.496" width="109.935" height="3.765" style="fill:#dd0058;"/><rect x="108.383" y="249.756" width="83.233" height="3.765" style="fill:#dd0058;"/><rect x="119.197" y="221.842" width="61.605" height="3.765" style="fill:#dd0058;"/><rect x="138.222" y="196.507" width="23.556" height="3.765" style="fill:#dd0058;"/><path d="M220.972,6.104c-3.099,32.569 -13.275,56.272 -26.695,76.313c-6.051,9.037 -12.773,17.14 -19.875,24.925c-4.861,5.329 -9.924,10.398 -14.976,15.514c-8.638,8.746 -17.588,17.195 -25.982,26.216c-12.996,13.965 -24.939,28.912 -34.624,45.923c-6.637,11.659 -12.106,24.235 -15.744,38.421c-4.515,17.611 -6.219,37.286 -4.048,60.48c2.936,-32.619 12.668,-56.656 25.533,-76.935c9.896,-15.596 21.837,-28.48 34.336,-40.857c4.325,-4.282 8.687,-8.497 13.004,-12.767c4.398,-4.351 8.768,-8.725 13.014,-13.212c7.848,-8.294 15.398,-16.837 22.352,-25.91c4.708,-6.143 9.107,-12.505 13.082,-19.256c5.209,-8.848 9.802,-18.138 13.313,-28.345c6.891,-20.027 10.023,-42.742 7.31,-70.51Z" style="fill:#dd0058;"/></svg>